<?xml version="1.0" encoding="UTF-8"?>
<svg width="17px" height="13px" viewBox="0 0 17 13" version="1.1" xmlns="http://www.w3.org/2000/svg" xmlns:xlink="http://www.w3.org/1999/xlink">
    <!-- Generator: Sketch 54.1 (76490) - https://sketchapp.com -->
    <title>icon / object / book-open</title>
    <desc>Created with Sketch.</desc>
    <g id="price-cards" stroke="none" stroke-width="1" fill="none" fill-rule="evenodd">
        <g id="icon-/-object-/-book-open" transform="translate(-2.000000, -4.000000)" fill="#02B3E4" fill-rule="nonzero">
            <path d="M17.3727273,7.35 L16.0363636,7.35 L16.0363636,6.01363636 L18.0409091,6.01363636 C18.4099357,6.01363636 18.7090909,6.31279155 18.7090909,6.68181818 L18.7090909,15.3681818 C18.7090909,15.7372084 18.4099357,16.0363636 18.0409091,16.0363636 L3.34090909,16.0363636 C2.97188246,16.0363636 2.67272727,15.7372084 2.67272727,15.3681818 L2.67272727,6.68181818 C2.67272727,6.31279155 2.97188246,6.01363636 3.34090909,6.01363636 L5.34545455,6.01363636 L5.34545455,7.35 L4.00909091,7.35 L4.00909091,14.7 L17.3727273,14.7 L17.3727273,7.35 Z M10.0227273,6.94683182 L5.79090909,5.59265 L5.79090909,12.4304409 L10.0227273,13.7846227 L10.0227273,6.94683182 Z M6.19820029,4.319865 L10.8945547,5.82269841 C11.1713021,5.91125759 11.3590909,6.16851927 11.3590909,6.45909091 L11.3590909,14.7 C11.3590909,15.1526913 10.9184177,15.4743618 10.4872635,15.3363925 L5.38361789,13.7032259 C4.830123,13.5261075 4.45454545,13.0115842 4.45454545,12.4304409 L4.45454545,5.59265 C4.45454545,4.85459674 5.05285583,4.25628636 5.79090909,4.25628636 C5.92914401,4.25628636 6.06654201,4.27773435 6.19820029,4.319865 Z M11.3590909,13.7846227 L15.5909091,12.4304409 L15.5909091,5.59265 L11.3590909,6.94683182 L11.3590909,13.7846227 Z M10.4872635,5.82269841 L15.1836179,4.319865 C15.8865576,4.09492428 16.6387534,4.48241906 16.8636941,5.1853588 C16.9058247,5.31701708 16.9272727,5.45441508 16.9272727,5.59265 L16.9272727,12.4304409 C16.9272727,13.0115842 16.5516952,13.5261075 15.9982003,13.7032259 L10.8945547,15.3363925 C10.4634005,15.4743618 10.0227273,15.1526913 10.0227273,14.7 L10.0227273,6.45909091 C10.0227273,6.16851927 10.210516,5.91125759 10.4872635,5.82269841 Z" id="🎨-icon-color"></path>
        </g>
    </g>
</svg>