<?xml version="1.0" encoding="UTF-8"?>
<svg width="15px" height="14px" viewBox="0 0 15 14" version="1.1" xmlns="http://www.w3.org/2000/svg" xmlns:xlink="http://www.w3.org/1999/xlink">
    <!-- Generator: Sketch 54.1 (76490) - https://sketchapp.com -->
    <title>icon / object / project</title>
    <desc>Created with Sketch.</desc>
    <g id="price-cards" stroke="none" stroke-width="1" fill="none" fill-rule="evenodd">
        <g id="icon-/-object-/-project" transform="translate(-4.000000, -4.000000)" fill="#02B3E4" fill-rule="nonzero">
            <path d="M6.3,6.3 L6.3,16.1 L10.5,16.1 C10.8865993,16.1 11.2,16.4134007 11.2,16.8 C11.2,17.1865993 10.8865993,17.5 10.5,17.5 L6.2142219,17.5 C5.46774173,17.5 4.9,16.8571596 4.9,16.1046216 L4.9,6.29537838 C4.9,5.54247487 5.46503684,4.9 6.21303389,4.9 L14.7869661,4.9 C15.5340343,4.9 16.1,5.54169552 16.1,6.29725426 L16.1,9.8 C16.1,10.1865993 15.7865993,10.5 15.4,10.5 C15.0134007,10.5 14.7,10.1865993 14.7,9.8 L14.7,6.3 L6.3,6.3 Z M8.4,9.1 C8.01340068,9.1 7.7,8.78659932 7.7,8.4 C7.7,8.01340068 8.01340068,7.7 8.4,7.7 L12.6,7.7 C12.9865993,7.7 13.3,8.01340068 13.3,8.4 C13.3,8.78659932 12.9865993,9.1 12.6,9.1 L8.4,9.1 Z M8.4,11.9 C8.01340068,11.9 7.7,11.5865993 7.7,11.2 C7.7,10.8134007 8.01340068,10.5 8.4,10.5 L11.2,10.5 C11.5865993,10.5 11.9,10.8134007 11.9,11.2 C11.9,11.5865993 11.5865993,11.9 11.2,11.9 L8.4,11.9 Z M8.4,14.7 C8.01340068,14.7 7.7,14.3865993 7.7,14 C7.7,13.6134007 8.01340068,13.3 8.4,13.3 L10.5,13.3 C10.8865993,13.3 11.2,13.6134007 11.2,14 C11.2,14.3865993 10.8865993,14.7 10.5,14.7 L8.4,14.7 Z M12.6,13.2935446 C12.6,12.5248809 13.2280998,11.9 13.9935446,11.9 L16.8064554,11.9 C17.5751191,11.9 18.2,12.5280998 18.2,13.2935446 L18.2,16.1064554 C18.2,16.8751191 17.5719002,17.5 16.8064554,17.5 L13.9935446,17.5 C13.2248809,17.5 12.6,16.8719002 12.6,16.1064554 L12.6,13.2935446 Z M14,16.1 L16.8,16.1 L16.8,13.3 L14,13.3 L14,16.1 Z" id="🎨-icon-color"></path>
        </g>
    </g>
</svg>